# xmcd
#
# Track frame offsets:
#	150
#	14737
#	25076
#	36611
#	47996
#	65037
#	82063
#	94629
#	111630
#	125816
#	136755
#	149262
#	162895
#
# Disc length: 2342 seconds
#
# Revision: 1
# Processed by: cddbd v1.5.2PL0 Copyright (c) Steve Scherf et al.
# Submitted via: audiograbber 1.83.01
#
DISCID=c509240d
DTITLE=dem bob and the deficits - go west
DYEAR=1900
DGENRE=
TTITLE0=call me country
TTITLE1=FBI s top ten
TTITLE2=we re come n arkansas
TTITLE3=the horse
TTITLE4=I d rather be in texas
TTITLE5=satellite of love
TTITLE6=dark in my heart
TTITLE7=hooker bone 2
TTITLE8=I m yo man
TTITLE9=year n burn n heart
TTITLE10=big corral
TTITLE11=don t give me nuth n
TTITLE12=I m not drink n
EXTD=
EXTT0=
EXTT1=
EXTT2=
EXTT3=
EXTT4=
EXTT5=
EXTT6=
EXTT7=
EXTT8=
EXTT9=
EXTT10=
EXTT11=
EXTT12=
PLAYORDER=
